<?xml version="1.0" standalone="no"?>
<!DOCTYPE svg PUBLIC "-//W3C//DTD SVG 20010904//EN"
 "http://www.w3.org/TR/2001/REC-SVG-20010904/DTD/svg10.dtd">
<svg version="1.0" xmlns="http://www.w3.org/2000/svg"
 width="512.000000pt" height="512.000000pt" viewBox="0 0 512.000000 512.000000"
 preserveAspectRatio="xMidYMid meet">

<g transform="translate(0.000000,512.000000) scale(0.100000,-0.100000)"
fill="#000000" stroke="none">
<path d="M1090 4025 l-185 -185 640 -640 640 -640 -640 -640 -640 -640 188
-187 187 -188 640 640 640 640 640 -640 640 -640 187 188 188 187 -640 640
-640 640 640 640 640 640 -188 187 -187 188 -640 -640 -640 -640 -638 638
c-350 350 -639 637 -642 637 -3 0 -88 -83 -190 -185z"/>
</g>
</svg>
